# xmcd CD database file
#
# Track frame offsets:
#	150
#	14222
#	30012
#	45947
#	60102
#	73600
#	85665
#	104532
#	119502
#	131965
#	148615
#	164370
#
# Disc length: 2434 seconds
#
# Revision: 0
# Processed by: cddbd v1.4PL0 Copyright (c) Steve Scherf et al.
# Submitted via: CDex 1.50beta10
#
DISCID=9c09800c
DTITLE=Junior Detroit - Turn Up the Heat
DYEAR=1995
DGENRE=Blues
TTITLE0=Turn up the Heat
TTITLE1=Your Family
TTITLE2=Boogie Blues
TTITLE3=Need More, Got to Have
TTITLE4=Killing Floor
TTITLE5=Come Back to Me
TTITLE6=Got High Again
TTITLE7=Bad Bad Whiskey
TTITLE8=You're Begging Too Much
TTITLE9=Anybody Can Have the Blues
TTITLE10=Buy Some Love
TTITLE11=Last Call
EXTD=YEAR: 1995
EXTT0=
EXTT1=
EXTT2=
EXTT3=
EXTT4=
EXTT5=
EXTT6=
EXTT7=
EXTT8=
EXTT9=
EXTT10=
EXTT11=
PLAYORDER=
